# Blender v2.79 (sub 0) OBJ File: 'gungame.blend'
# www.blender.org
mtllib gungame5.mtl
o Plane_Plane.001
v -1.000000 0.000000 1.000000
v 1.000000 0.000000 1.000000
v -1.000000 0.000000 -1.000000
v 1.000000 0.000000 -1.000000
v -1.000000 0.000000 -3.005811
v 1.000000 0.000000 -3.005811
v -1.000000 0.000000 -4.968017
v 1.000000 0.000000 -4.968017
v 2.229650 1.627988 1.000000
v 2.229650 1.627988 -1.000000
v 2.229650 1.627988 -3.005811
v 2.229650 1.627988 -4.968017
v 2.229650 4.346901 1.000000
v 2.229650 4.346901 -1.000000
v 2.229650 4.346901 -3.005811
v 2.229650 4.346901 -4.968017
v 0.451959 6.262616 1.000000
v 0.451959 6.262616 -1.000000
v 0.451959 6.262616 -3.005811
v 0.451959 6.262616 -4.968017
v 1.000000 0.000000 1.000000
v -1.000000 0.000000 1.000000
v 1.000000 0.000000 -1.000000
v -1.000000 0.000000 -1.000000
v 1.000000 0.000000 -3.005811
v -1.000000 0.000000 -3.005811
v 1.000000 0.000000 -4.968017
v -1.000000 0.000000 -4.968017
v -2.229650 1.627988 1.000000
v -2.229650 1.627988 -1.000000
v -2.229650 1.627988 -3.005811
v -2.229650 1.627988 -4.968017
v -2.229650 4.346901 1.000000
v -2.229650 4.346901 -1.000000
v -2.229650 4.346901 -3.005811
v -2.229650 4.346901 -4.968017
v -0.451959 6.262616 1.000000
v -0.451959 6.262616 -1.000000
v -0.451959 6.262616 -3.005811
v -0.451959 6.262616 -4.968017
vn 0.0000 -1.0000 0.0000
vn 0.7980 -0.6027 0.0000
vn 1.0000 0.0000 0.0000
vn 0.7330 0.6802 0.0000
vn -0.7980 -0.6027 0.0000
vn -1.0000 0.0000 0.0000
vn -0.7330 0.6802 0.0000
vn 0.0000 1.0000 0.0000
usemtl None
s off
f 1//1 3//1 4//1 2//1
f 3//1 5//1 6//1 4//1
f 5//1 7//1 8//1 6//1
f 8//2 12//2 11//2 6//2
f 6//2 11//2 10//2 4//2
f 4//2 10//2 9//2 2//2
f 12//3 16//3 15//3 11//3
f 11//3 15//3 14//3 10//3
f 10//3 14//3 13//3 9//3
f 16//4 20//4 19//4 15//4
f 15//4 19//4 18//4 14//4
f 14//4 18//4 17//4 13//4
f 21//1 22//1 24//1 23//1
f 23//1 24//1 26//1 25//1
f 25//1 26//1 28//1 27//1
f 28//5 26//5 31//5 32//5
f 26//5 24//5 30//5 31//5
f 24//5 22//5 29//5 30//5
f 32//6 31//6 35//6 36//6
f 31//6 30//6 34//6 35//6
f 30//6 29//6 33//6 34//6
f 36//7 35//7 39//7 40//7
f 35//7 34//7 38//7 39//7
f 34//7 33//7 37//7 38//7
f 18//8 38//8 37//8 17//8
f 19//8 39//8 38//8 18//8
f 20//8 40//8 39//8 19//8
